<svg width="459" height="367" viewBox="0 0 459 367" fill="none" xmlns="http://www.w3.org/2000/svg">
<g clip-path="url(#clip0)">
<path d="M53.52 202.32C53.52 216.12 42.24 224.32 26.52 224.32C15.25 224.32 7.13998 221.68 -0.0200195 214.41L7.55998 206.93C13.04 212.41 19.04 214.1 26.74 214.1C36.53 214.1 42.22 209.88 42.22 202.62C42.22 199.35 41.28 196.62 39.27 194.82C37.26 193.02 35.48 192.29 31.06 191.66L22.21 190.39C16.1 189.55 11.21 187.39 7.97998 184.39C4.29998 180.91 2.49998 176.17 2.49998 170.06C2.49998 157 11.99 148.06 27.58 148.06C37.48 148.06 44.44 150.59 50.86 156.59L43.59 163.76C38.96 159.33 33.59 157.96 27.26 157.96C18.41 157.96 13.57 163.02 13.57 169.66C13.5091 170.955 13.7317 172.248 14.2222 173.449C14.7127 174.649 15.4594 175.728 16.41 176.61C18.844 178.527 21.7622 179.732 24.84 180.09L33.37 181.35C40.37 182.41 44.23 184.09 47.37 186.94C51.52 190.56 53.52 195.89 53.52 202.32ZM73.22 155.01H62.47V171.24H56.36V179.46H62.47V208.85C62.47 216.54 67.11 223.71 77.12 223.71H83.54V214.56H79.17C75.17 214.56 73.27 212.24 73.27 208.34V179.46H83.59V171.24H73.22V155.01ZM94.5 218.01C89.44 212.74 88.18 206.01 88.18 196.94C88.18 187.87 89.44 181.24 94.5 175.94C97.97 172.36 103.14 169.62 110.41 169.62C117.68 169.62 122.94 172.36 126.41 175.94C131.47 181.21 132.73 187.94 132.73 196.94C132.73 205.94 131.47 212.74 126.41 218.01C122.93 221.59 117.67 224.33 110.41 224.33C103.15 224.33 97.97 221.56 94.5 218.02V218.01ZM98.92 196.94C98.92 202.73 99.34 208.31 102.61 211.58C103.63 212.605 104.847 213.414 106.187 213.957C107.528 214.5 108.964 214.766 110.41 214.74C111.871 214.764 113.322 214.497 114.678 213.955C116.034 213.412 117.269 212.605 118.31 211.58C121.58 208.31 122 202.73 122 196.94C122 191.15 121.58 185.56 118.31 182.29C117.264 181.28 116.025 180.489 114.669 179.966C113.312 179.442 111.864 179.195 110.41 179.24C108.971 179.195 107.538 179.442 106.198 179.966C104.857 180.49 103.637 181.281 102.61 182.29C99.34 185.56 98.92 191.15 98.92 196.95V196.94ZM151.81 191.25C151.81 183.87 156.66 179.25 162.45 179.25C166.14 179.25 168.03 180.4 170.45 182.83L178.56 174.71C174.87 171.03 170.98 169.71 165.81 169.71C159.81 169.71 154.33 172.34 151.59 176.13V170.34H141.06V223.76H151.81V191.25ZM224.06 200.1H189.39C189.39 209.26 194.24 215.1 202.98 215.1C208.98 215.1 212.15 213.41 215.98 209.62L222.83 216.04C217.35 221.52 212.19 224.37 202.83 224.37C189.45 224.37 178.83 217.31 178.83 196.98C178.83 179.7 187.83 169.69 201.48 169.69C215.81 169.69 224.14 180.22 224.14 195.4L224.06 200.1ZM213.41 192.62C213.467 190.117 212.965 187.634 211.94 185.35C211.077 183.287 209.607 181.536 207.724 180.33C205.841 179.124 203.635 178.52 201.4 178.6C199.153 178.522 196.935 179.125 195.036 180.33C193.138 181.534 191.647 183.284 190.76 185.35C189.775 187.643 189.307 190.125 189.39 192.62H213.41ZM175.76 141.56C187.35 143.08 201.76 147.94 214.86 143.71C220.77 150.04 219.24 152.53 236.7 153.95C240.97 154.3 258.36 138.88 258.98 132.84C268.31 134.34 290.76 127.84 291.16 128.57C283.77 133.33 293.16 143.9 298.55 146.57C302.26 148.45 307.55 152.18 311.26 154.06L311.81 154.37C310.61 154.75 309.41 155.16 308.24 155.64L308.34 160.01C310.71 158.971 313.162 158.128 315.67 157.49C316.574 158.894 317.249 160.434 317.67 162.05C317.92 164.05 325.36 167.83 326.91 167.05C337.98 163.57 334.58 158.73 331.5 156.1C332.98 156.22 334.5 156.39 335.97 156.66L336.88 156.83L337.82 152.83L336.67 152.61C335.29 152.36 333.91 152.19 332.53 152.05C333.107 151.583 333.633 151.057 334.1 150.48C336.61 147.21 336.1 144.79 333.77 142.68C329.35 138.6 326.17 139.68 322.49 140.43C320.27 140.91 324.63 123.14 321.12 122.31C321.9 120.97 322.68 119.54 323.65 117.86C324.92 115.64 326.76 110.53 326.29 107.12C326.84 102.4 330.75 101.19 333.56 103.05C337.64 105.76 336.27 105.32 341.74 104.49C348.83 103.4 351.39 97.93 354.5 92.04C355.22 90.67 357.6 89.24 358.22 87.89C359.59 84.84 363.29 84.27 364.46 82.08C366.054 80.8125 368.024 80.1091 370.06 80.08C370.51 80.0077 370.97 80.0077 371.42 80.08C372.139 80.4554 372.681 81.0983 372.93 81.87C373.372 82.4908 373.672 83.2007 373.81 83.95C379.95 79.39 374.75 70.84 369.89 71.21C371.09 67.59 373.29 61.77 366.59 58.69C366.19 52.77 355.59 45.75 348.38 45.46C341.75 45.15 336.99 45.9 331.94 50.15C331.94 49.2 332.01 47.93 332.03 46.98C332.03 46.82 332.03 45.71 332.03 45.71C332.03 45.55 332.61 45.06 332.62 44.91C332.729 44.259 333.009 43.6484 333.43 43.14C333.63 42.82 334.43 42.48 334.43 42.01C330.21 43.54 320.43 48.49 320.35 52.77C313.75 50.92 308.92 55.17 306.21 60.77C300.71 50.14 288.28 39.68 319.51 -0.0400085C317.17 1.54999 313.77 1.14999 311.51 2.95999C304.2 8.03999 299.42 14.68 294.26 21.39C293.571 21.1036 292.941 20.6935 292.4 20.18C291.785 18.7149 291.528 17.1243 291.65 15.54C291.885 14.7342 292.006 13.8994 292.01 13.06C292.01 11.46 291.49 11.72 291.92 10.35C286.436 14.1744 281.544 18.7836 277.4 24.03C274.75 27.49 271.65 32.32 272.63 36.27C272.48 36.46 272.04 37.04 271.82 36.93L270.04 36.03L268.92 34.66L267.92 33.6C267.536 33.3148 267.249 32.9172 267.1 32.4622C266.952 32.0072 266.948 31.5172 267.09 31.06C263.26 36.06 259.36 40.72 257.6 46.22C255.77 52.22 259.49 56.22 260.76 61.41L259.17 60.86L257.76 60.15C255.88 59.15 253.99 56.56 252.81 55.15C253.54 60.59 253.08 65.42 256.54 70.27C260.31 75.55 265.25 79.74 271.13 83.56C268.13 83.18 264.33 83.5 261.2 82.47C258.69 81.47 255.2 79.7 252.82 78.47C252.837 79.8866 253.245 81.271 254 82.47C255.53 84.33 255.81 89.35 258.16 90.54C241.01 91.18 233.22 106.24 233.46 115.77C229.33 117.43 230.89 117.93 227.84 120.38C227.76 116.61 226.74 115.49 224.99 113.63C224.07 112.63 217.84 105.1 218.7 103.83C220.78 100.77 222.37 97.16 219.84 93.91C216.96 90.22 213.51 91.67 207.84 88.13C204.21 85.86 201.84 86.79 199.68 83.34C198.46 81.34 196.58 80.01 194.17 80.65C190.38 84.86 195.52 88.3 198.77 92.33C199.858 93.5952 200.86 94.9315 201.77 96.33C205.17 101.56 208.17 118.56 209.64 124.73C202.43 124.32 202.64 125.44 195.81 128.18C184.18 132.84 184.93 129.29 175.23 129.06C168.83 128.92 164.59 133.5 163.38 134.47C159.8 137.34 157.01 135.31 152.93 138.16C149.66 140.44 148.05 138.43 147.13 140.02C145.74 148.56 170.03 140.76 175.76 141.56ZM279.08 206.99L285.13 215.42L296.01 217.34L289.96 208.91L279.08 206.99ZM318.8 239.53L312.66 230.98L301.79 229.06L307.92 237.61L318.8 239.53ZM305.64 237.21L299.5 228.66L288.62 226.74L294.76 235.29L305.64 237.21ZM292.98 225.86L301.6 219.97L290.73 218.06L282.11 223.94L292.98 225.86ZM371.98 176.86L369.51 180.72C370.703 182.872 371.729 185.112 372.58 187.42L375.44 183.6C374.439 181.248 373.27 178.972 371.94 176.79L371.98 176.86ZM311.5 220.08L322.37 222L316.37 213.57L305.41 211.56L311.5 220.08ZM292.25 209.26L298.25 217.69L309.17 219.61L303.17 211.18L292.25 209.26ZM313.76 211.41L329.84 214.24L339.42 207.53L323.35 204.69L313.76 211.41ZM367.41 231.56L356.54 229.64L347.92 235.53L358.79 237.45L367.41 231.56ZM376.09 214.02L360.01 211.19L350.43 217.9L366.5 220.74L376.09 214.02ZM331.96 241.83L325.82 233.28L314.95 231.36L321.08 239.92L331.96 241.83ZM358.28 246.48L352.17 237.89L341.29 235.98L347.43 244.53L358.28 246.48ZM345.17 244.12L338.99 235.56L328.11 233.64L334.25 242.2L345.17 244.12ZM317.17 201.95L321.25 202.67L321.07 202.11C320.92 201.608 320.82 201.092 320.77 200.57C320.71 200.04 320.66 199.52 320.59 199L320.37 197.44L320.17 195.87L319.98 194.3L319.78 192.77L319.9 192.67C319.934 192.738 319.964 192.808 319.99 192.88L320.06 193.07L320.19 193.45L320.43 194.2L320.9 195.71L321.34 197.23L321.76 198.76C321.9 199.26 322.06 199.76 322.22 200.27C322.371 200.773 322.478 201.288 322.54 201.81C322.54 202.18 322.61 202.54 322.62 202.91L323.53 203.07L327.03 197.52C326.524 196.66 326.131 195.74 325.86 194.78C325.712 194.273 325.608 193.755 325.55 193.23C325.55 192.71 325.45 192.18 325.38 191.66L325.16 190.1L324.96 188.53L324.77 186.96L324.57 185.43L324.69 185.33C324.69 185.4 324.76 185.48 324.78 185.54L324.85 185.73L324.98 186.11L325.22 186.86L325.69 188.38L326.13 189.9L326.55 191.42C326.69 191.93 326.85 192.42 327.01 192.93C327.162 193.436 327.269 193.955 327.33 194.48C327.43 195.293 327.45 196.113 327.39 196.93L328.89 194.55L331.72 190.01C331.268 189.196 330.909 188.334 330.65 187.44C330.502 186.933 330.398 186.415 330.34 185.89C330.29 185.37 330.24 184.84 330.17 184.32L329.95 182.76L329.75 181.19L329.56 179.63L329.36 178.09L329.48 178C329.516 178.067 329.546 178.138 329.57 178.21L329.64 178.4L329.77 178.77L330.01 179.53L330.48 181.04L330.92 182.56L331.34 184.08C331.48 184.59 331.64 185.08 331.8 185.6C331.951 186.103 332.058 186.618 332.12 187.14C332.197 187.834 332.224 188.532 332.2 189.23L332.57 188.64C333.79 186.64 335.05 184.697 336.35 182.81L336.48 182.62C336.05 181.822 335.714 180.976 335.48 180.1C335.332 179.597 335.228 179.081 335.17 178.56C335.17 178.03 335.07 177.51 335 176.99L334.77 175.42L334.57 173.86L334.39 172.29L334.19 170.75L334.31 170.66C334.346 170.727 334.376 170.798 334.4 170.87L334.47 171.06L334.6 171.43L334.84 172.19L335.31 173.7L335.75 175.22L336.17 176.74C336.31 177.25 336.47 177.74 336.62 178.26C336.779 178.762 336.889 179.277 336.95 179.8C337.027 180.487 337.054 181.179 337.03 181.87L338.36 179.94C339.03 178.99 339.69 178.03 340.36 177.09C341.71 175.2 343.08 173.33 344.53 171.5L344.65 171.59C343.57 173.65 342.42 175.66 341.24 177.67C340.66 178.67 340.05 179.67 339.46 180.67L339.34 180.86C339.921 180.592 340.519 180.362 341.13 180.17C341.633 180.019 342.148 179.912 342.67 179.85C343.2 179.79 343.72 179.73 344.24 179.65L345.81 179.42L347.38 179.22L348.95 179.04L349.74 178.96H350.14H350.57V179.1L349.09 179.54L347.58 180L346.06 180.45L344.55 180.88C344.04 181.02 343.55 181.19 343.04 181.35C342.536 181.502 342.021 181.616 341.5 181.69C340.628 181.804 339.747 181.827 338.87 181.76L337.69 183.68C336.75 185.187 335.787 186.677 334.8 188.15C335.319 187.925 335.85 187.729 336.39 187.56C336.893 187.406 337.408 187.296 337.93 187.23C338.46 187.17 338.99 187.12 339.51 187.04L341.07 186.81L342.64 186.61L344.21 186.43L345 186.34H345.4H345.83V186.48L344.34 186.92L342.83 187.38L341.32 187.83L339.8 188.25C339.29 188.39 338.8 188.56 338.29 188.72C337.789 188.882 337.273 188.996 336.75 189.06C335.905 189.175 335.051 189.205 334.2 189.15L333.93 189.55L330.02 195.3L329.77 195.67C330.374 195.38 330.999 195.136 331.64 194.94C332.146 194.785 332.665 194.675 333.19 194.61C333.71 194.55 334.19 194.5 334.76 194.42L336.32 194.19L337.89 193.98L339.46 193.8L340.25 193.72H340.65H340.85H341.08V193.87L339.59 194.31L338.08 194.77L336.57 195.21L335.05 195.64C334.54 195.78 334.05 195.95 333.54 196.11C333.037 196.267 332.522 196.381 332 196.45C331.095 196.574 330.18 196.597 329.27 196.52L324.78 203.17C325.458 202.828 326.164 202.543 326.89 202.32C327.396 202.168 327.915 202.061 328.44 202C328.96 201.94 329.49 201.89 330.01 201.81L331.57 201.58L333.14 201.37L334.71 201.19L335.5 201.11H335.9H336.1H336.33V201.25L334.85 201.69L333.33 202.15L331.82 202.6L330.3 203.03C329.79 203.17 329.3 203.34 328.79 203.5C328.286 203.653 327.771 203.767 327.25 203.84H327.07L336.69 205.53C338.794 204.502 340.609 202.966 341.97 201.06L334.09 199.3C334.09 199.3 342.34 198.86 345.09 194.69L340.92 190.96C340.92 190.96 347.92 190.45 350.71 186.17L346.24 184.27C346.24 184.27 352.49 180.27 355.32 175.92H348.08C348.688 174.479 348.955 172.918 348.862 171.357C348.768 169.796 348.316 168.278 347.54 166.92L347.01 166.64C341.83 165.95 339.69 173.39 339.69 173.39L334.17 165.68C332.437 168.579 331.602 171.927 331.77 175.3L328.69 172.49C325.9 176.77 326.94 183.32 326.94 183.32L323.62 179.17C320.9 183.34 321.96 190.46 321.96 190.46L318.85 186.36C315.94 190.83 316.42 197.71 317.1 201.95H317.17ZM364.05 172.72C365.748 174.707 367.28 176.831 368.63 179.07L371.05 175.28C369.55 173.025 367.878 170.888 366.05 168.89L364.05 172.72ZM306.7 156.31C304.136 157.443 301.668 158.78 299.32 160.31L299.79 164.91C302.002 163.326 304.344 161.931 306.79 160.74L306.7 156.31ZM348 156.02C345.229 154.847 342.362 153.917 339.43 153.24L338.49 157.24C341.306 157.889 344.057 158.793 346.71 159.94L348 156.02ZM297.17 171.9C297.36 176.27 297.54 180.65 297.75 185.02C297.842 186.469 297.512 187.914 296.8 189.18C296.14 190.35 295.4 191.48 294.74 192.66C294.08 193.84 293.31 195.16 292.74 196.46C292.574 196.819 292.428 197.186 292.3 197.56L313.72 201.34C313.725 201.253 313.725 201.167 313.72 201.08C313.688 200.387 313.601 199.699 313.46 199.02C312.804 196.447 311.577 194.054 309.87 192.02C309.05 190.93 308.24 189.83 307.45 188.71C306.661 187.604 306.223 186.288 306.19 184.93C306.02 180.46 305.81 176 305.61 171.53C305.61 171.32 305.61 171.11 305.61 170.88L297.21 171.25C297.11 171.47 297.17 171.68 297.17 171.9ZM368.8 221.1L378.98 222.9C380.045 223.055 381.129 222.79 382.001 222.159C382.874 221.529 383.467 220.584 383.654 219.524C383.841 218.464 383.608 217.372 383.005 216.481C382.401 215.59 381.474 214.969 380.42 214.75L378.42 214.39L368.8 221.1ZM355.9 195.56C355.339 195.269 354.74 195.06 354.12 194.94C353.179 194.777 352.215 194.804 351.284 195.019C350.353 195.233 349.475 195.632 348.7 196.19C347.122 197.217 345.793 198.584 344.81 200.19C343.596 202.093 342.739 204.2 342.28 206.41L372 211.66C372.335 210.275 372.386 208.836 372.15 207.43C372.038 206.583 371.755 205.769 371.316 205.036C370.878 204.303 370.293 203.668 369.6 203.17C367.538 201.726 365.113 200.887 362.6 200.75L369.1 199.43L368.4 197.08L365.31 198.32C365.305 197.304 365.006 196.31 364.45 195.46C363.874 194.585 363.154 193.814 362.32 193.18C360.526 191.859 358.566 190.78 356.49 189.97C356.49 190.22 356.43 190.47 356.43 190.71C356.451 191.728 356.767 192.718 357.34 193.56C357.995 194.517 358.818 195.347 359.77 196.01C361.239 197.057 362.814 197.945 364.47 198.66L361.09 200.01C359.765 198.11 357.979 196.579 355.9 195.56ZM341.09 226.94L330.17 224.97L321.56 230.86L332.43 232.78L341.09 226.94ZM332.09 214.69L348.17 217.47L357.75 210.76L341.68 207.93L332.09 214.69ZM329.44 215.87H329.23L321.97 214.59L318.56 213.99L324.61 222.42L335.48 224.34L329.44 215.87ZM354.24 229.26L343.37 227.34L334.75 233.23L345.62 235.15L354.24 229.26ZM331.72 216.26L337.77 224.7L348.66 226.56L342.66 218.13L331.72 216.26ZM295.26 226.26L306.17 228.13L314.78 222.24L303.91 220.33L295.26 226.26ZM327.93 224.56L317.05 222.64L308.43 228.56L319.31 230.47L327.93 224.56ZM344.93 218.56L350.93 227L361.81 228.91L355.81 220.48L344.93 218.56ZM359.58 248.33L353.08 247.19L344.55 253.02L350.48 254.02C353.739 252.526 356.786 250.606 359.54 248.31L359.58 248.33ZM361.16 246.97C363.308 244.997 365.285 242.846 367.07 240.54L354.48 238.32L360.61 246.87L361.16 246.97ZM350.79 246.78L339.92 244.87L331.39 250.7L342.22 252.56L350.79 246.78ZM329.1 250.29L337.63 244.46L326.71 242.56L318.17 248.36L323.33 249.26L329.1 250.29ZM324.47 242.14L313.59 240.23L305.06 246.05L315.94 247.97L324.47 242.14ZM372.34 232.41L369.74 231.95L361.12 237.84L368.12 239.08C369.657 236.943 371.053 234.708 372.3 232.39L372.34 232.41ZM311.34 239.82L300.46 237.9L291.93 243.73L302.81 245.65L311.34 239.82ZM373.17 189.21C373.876 191.39 374.421 193.62 374.8 195.88L378.17 191.99C377.632 189.714 376.944 187.475 376.11 185.29L373.17 189.21ZM375.45 204.33L379.45 200.33C379.309 198.198 379.035 196.078 378.63 193.98L375.14 197.98C375.385 200.087 375.489 202.209 375.45 204.33V204.33ZM373.76 229.56L368.93 222.83L358.06 220.91L364.11 229.35L373.11 230.93C373.33 230.41 373.55 229.95 373.76 229.56ZM356.76 165.93C358.913 167.607 360.92 169.464 362.76 171.48L364.76 167.68C362.778 165.643 360.634 163.77 358.35 162.08L356.76 165.93ZM374.7 212.16L378.7 212.86C379.299 209.471 379.56 206.031 379.48 202.59L375.33 206.78C375.227 208.567 375.024 210.346 374.72 212.11L374.7 212.16ZM375.98 224.08L371.2 223.24L374.52 227.86C375.078 226.609 375.572 225.331 376 224.03L375.98 224.08ZM280.68 181.56L282.61 187.56C283.422 185.305 284.405 183.116 285.55 181.01L284.17 175.42C282.869 177.385 281.703 179.437 280.68 181.56V181.56ZM277.09 204.91L293.17 207.77L302.75 201.06L286.68 198.23L277.09 204.91ZM285.35 173.6L286.71 178.93C288.005 176.799 289.467 174.772 291.08 172.87L290.17 167.81C288.423 169.629 286.812 171.575 285.35 173.63V173.6ZM291.57 166.41L292.45 171.32C294.209 169.413 296.122 167.653 298.17 166.06L297.68 161.36C295.518 162.896 293.475 164.594 291.57 166.44V166.41ZM289.57 243.28L298.1 237.45L282.38 234.68C284.188 237.791 286.404 240.647 288.97 243.17L289.57 243.28ZM348.17 160.56C350.732 161.778 353.182 163.221 355.49 164.87L357.12 161.05C354.697 159.374 352.134 157.908 349.46 156.67L348.17 160.56ZM295.47 208.16L311.54 211L321.13 204.29L305.05 201.45L295.47 208.16ZM292.47 234.83L286.34 226.28L278.01 224.81C278.888 227.59 280.009 230.287 281.36 232.87L292.47 234.83ZM279.82 223.48L288.44 217.59L275.83 215.37C276.221 217.968 276.772 220.54 277.48 223.07L279.82 223.48ZM282.82 214.96L276.8 206.56L275.17 206.26C275.115 208.743 275.249 211.227 275.57 213.69L282.82 214.96ZM269.45 199.39C269.264 200.47 269.513 201.58 270.142 202.478C270.772 203.375 271.731 203.987 272.81 204.18L274.81 204.53L284.4 197.82L274.26 196.03C273.18 195.852 272.074 196.106 271.18 196.737C270.286 197.367 269.675 198.324 269.48 199.4L269.45 199.39ZM276.45 194.77L280.45 195.48C280.765 193.677 281.186 191.894 281.71 190.14L279.64 183.8C278.192 187.334 277.135 191.016 276.49 194.78L276.45 194.77ZM228.02 310.27C228.022 310.3 228.022 310.33 228.02 310.36V310.36V310.27ZM359.71 271.76C359.71 274.45 348.13 294.93 338.17 315.89C328.21 336.85 316.17 366.34 295.57 366.34C285.03 366.34 276.25 360.25 276.25 350.77C276.25 339.3 286.67 330.64 295.8 330.64C301.19 330.64 304.23 334.03 304.23 337.54C304.23 341.29 301.3 343.75 300.84 343.75C300.6 343.75 300.6 343.63 300.6 343.51V342.56C300.6 341.15 298.14 340.21 294.98 340.21C287.84 340.21 283.28 345.21 283.28 349.7C283.28 354.61 287.02 357.3 291.28 357.3C301.11 357.3 308.28 344.3 311.76 337.3C314.411 332.238 316.606 326.951 318.32 321.5C314.57 325.83 310.47 327.58 306.61 327.58C299 327.58 292.45 320.09 292.45 310.73C292.45 310.41 292.45 310.11 292.45 309.79C286.3 317.99 276.75 327.79 269.59 327.79C264.09 327.79 258.82 323.46 258.82 317.37C258.82 304.03 271.11 285.06 274.15 280.85L273.69 280.62C267.25 286.82 254.61 300.98 248.05 310.93C241.49 320.88 239.27 327.67 236.81 327.67C234.35 327.67 229.32 324.16 229.32 319.83C229.32 315.83 240.89 290.53 249.32 276.62C240.85 284.39 227.39 294.78 216.93 294.78H215.52C211.31 302.62 208.85 308.47 208.85 310.78C208.85 314.18 211.19 316.29 214.94 316.29C219.85 316.29 226.06 310.29 226.76 309.03C227.153 309.473 227.571 309.893 228.01 310.29C227.64 311.56 217.63 327.64 205.46 327.64C198.46 327.64 193.63 321.79 193.63 313.12C193.63 307.51 195.86 300.83 199.37 293.81C191.521 293.035 183.738 291.698 176.08 289.81C158.52 307.95 139.44 324.46 120.08 324.46C101.59 324.46 92.23 312.75 92.23 300C92.23 284.78 105.57 268.16 132.84 268.16C147.12 268.16 160.23 272.25 174.75 275.88C193.59 255.98 212.55 236.09 231.05 236.09C242.75 236.09 254.11 240.3 254.11 241.94C254.11 242.52 252.94 243.46 251.53 244.86C246.03 250.25 235.85 263.12 226.72 276.59C225.55 278.34 224.38 280.1 223.32 281.73C236.2 281.03 254.93 268.82 255.98 267.53L256.18 267.65C256.371 267.535 256.587 267.467 256.81 267.45C258.57 267.45 264.89 268.98 264.89 272.25C264.89 275.18 260.89 283.84 260.32 285.83L260.44 285.95C262.55 283.84 275.89 268.27 282.33 268.27C286.66 268.27 292.28 271.2 292.28 273.27C292.28 276.43 290.87 278.42 289.28 281.58C287.69 284.74 274.54 308.58 274.54 313.65C274.54 315.05 274.89 316.11 277.23 316.11C282.02 316.11 290.93 303.11 295.03 297.61C301.75 280.61 320.1 267.53 332.24 267.53C337.86 267.53 342.08 270.34 343.24 276.78C343.82 276.08 347.92 270.46 349.24 269.78C350.527 269.209 351.936 268.965 353.34 269.07H354.74C356.32 269.18 359.71 270.12 359.71 271.76ZM164.46 286.86C152.87 283.7 142.46 280.86 129.81 280.86C108.86 280.86 99.49 291.16 99.49 300.64C99.49 308.72 106.4 316.33 118.69 316.33C133.56 316.36 148.89 302.78 164.46 286.86ZM234.1 243.43C234.1 242.96 233.05 242.85 232.81 242.85C219.81 242.85 204.02 260.17 186.58 278.78C193.07 280.159 199.639 281.137 206.25 281.71C208.12 278.55 210.25 275.62 212.25 272.71C222.87 257.48 234.1 244.48 234.1 243.43ZM336.89 282.06C336.89 278.43 335.95 275.97 332.79 275.97C322.02 275.97 307.04 299.62 307.04 309.92C307.04 313.43 308.68 316.47 311.95 316.47C320.17 316.47 336.89 288.73 336.89 282.06ZM442.82 299.27C442.82 303.36 424.68 327.83 409.58 327.83C402.68 327.83 395.89 320.45 395.89 314.95C395.904 313.649 396.021 312.352 396.24 311.07C389.24 319.22 377.98 328.41 366.15 328.41C358.15 328.41 351.99 320.34 351.99 310.74C351.99 298.48 363.93 278.19 376.92 271.45C382.22 268.4 390.53 264.94 396.64 268.56C398.083 269.396 399.282 270.596 400.115 272.04C400.949 273.484 401.388 275.122 401.39 276.79C401.39 285.57 388.39 300.79 369.55 300.79C369.212 300.804 368.875 300.764 368.55 300.67C367.1 303.675 366.264 306.938 366.09 310.27C366.09 315.42 367.96 318.7 372.29 318.7C385.16 318.7 396.18 302.87 400.41 297.38C409.96 273.38 432.91 239.57 450.41 239.57C454.97 239.57 458.6 242.26 458.6 244.13C458.6 248.93 432.03 295.29 411.9 306.13C410.865 309.19 410.272 312.382 410.14 315.61C410.222 316.752 410.744 317.818 411.597 318.583C412.449 319.348 413.565 319.752 414.71 319.71C425.82 319.71 440.11 295.36 441.39 295.36C442.67 295.36 442.82 297.98 442.82 299.27V299.27ZM417.07 293.76C429.71 283.46 449.26 251.76 449.26 249.64C449.258 249.547 449.22 249.458 449.155 249.392C449.091 249.325 449.003 249.285 448.91 249.28C447.17 249.28 427.84 272.81 417.07 293.76ZM371.42 294.82C380.67 292.82 392.73 283.35 392.73 276.68C392.758 276.401 392.721 276.119 392.623 275.856C392.525 275.593 392.368 275.356 392.165 275.163C391.961 274.97 391.716 274.826 391.448 274.743C391.181 274.659 390.897 274.637 390.62 274.68C386.52 274.68 377.27 284.56 371.42 294.82Z" fill="white"/>
</g>
<defs>
<clipPath id="clip0">
<rect width="458.52" height="366.33" fill="white"/>
</clipPath>
</defs>
</svg>
