<?xml version="1.0" encoding="UTF-8"?>
<!DOCTYPE svg PUBLIC "-//W3C//DTD SVG 1.1//EN" "http://www.w3.org/Graphics/SVG/1.1/DTD/svg11.dtd">
<svg xmlns="http://www.w3.org/2000/svg" xml:space="preserve" width="580px" height="580px" shape-rendering="geometricPrecision" text-rendering="geometricPrecision" image-rendering="optimizeQuality" fill-rule="nonzero" clip-rule="nonzero" viewBox="0 0 5800 5800" xmlns:xlink="http://www.w3.org/1999/xlink">
	<title>clipboard_check_edit icon</title>
	<desc>clipboard_check_edit icon from the IconExperience.com I-Collection. Copyright by INCORS GmbH (www.incors.com).</desc>
		<path id="curve28" fill="#000000" d="M2300 400c0,-165 135,-300 300,-300l600 0c165,0 300,135 300,300l600 0 0 1100 -2400 0 0 -1100 600 0zm-400 200l0 700 2000 0 0 -700 -600 0 0 -200c0,-55 -45,-100 -100,-100l-600 0c-55,0 -100,45 -100,100l0 200 -600 0zm-700 100l300 0 0 200 -300 0c-55,0 -100,45 -100,100l0 4200c0,55 45,100 100,100l3400 0c55,0 100,-45 100,-100l0 -1593 200 -200 0 1793c0,165 -135,300 -300,300l-3400 0c-165,0 -300,-135 -300,-300l0 -4200c0,-165 135,-300 300,-300zm3500 700l0 -400c0,-55 -45,-100 -100,-100l-300 0 0 -200 300 0c165,0 300,135 300,300l0 442c-64,-28 -132,-42 -200,-42zm-2529 1029l529 530 1129 -1130 142 142 -1271 1270 -671 -670 142 -142zm-671 -1329c0,1200 0,2400 0,3600l2800 0 0 -693 200 -200 0 1093 -3200 0 0 -3800 200 0zm2800 493c0,-164 0,-329 0,-493l200 0 0 342c-56,24 -108,59 -154,104l-46 47zm759 807l-359 -359 -1515 1515 -215 574 574 -215 1515 -1515zm-288 -571l500 500c39,39 39,103 0,142l-1600 1600c0,0 -33,21 -36,22l-800 300c-22,8 -46,9 -70,0 -51,-19 -78,-76 -58,-128l297 -792c4,-16 13,-31 25,-44l1600 -1600c39,-39 103,-39 142,0z"/>
</svg>